<svg width="29" height="29" viewBox="0 0 29 29" fill="none" xmlns="http://www.w3.org/2000/svg">
<path d="M21.4419 3.91162C20.5009 3.91162 19.5985 4.28541 18.9332 4.95076C18.2678 5.61611 17.894 6.51852 17.894 7.45947V21.6509C17.894 22.5918 18.2678 23.4942 18.9332 24.1596C19.5985 24.8249 20.5009 25.1987 21.4419 25.1987C22.3828 25.1987 23.2852 24.8249 23.9506 24.1596C24.6159 23.4942 24.9897 22.5918 24.9897 21.6509C24.9897 20.7099 24.6159 19.8075 23.9506 19.1422C23.2852 18.4768 22.3828 18.103 21.4419 18.103H7.25048C6.30954 18.103 5.40713 18.4768 4.74178 19.1422C4.07643 19.8075 3.70264 20.7099 3.70264 21.6509C3.70264 22.5918 4.07643 23.4942 4.74178 24.1596C5.40713 24.8249 6.30954 25.1987 7.25048 25.1987C8.19143 25.1987 9.09384 24.8249 9.75919 24.1596C10.4245 23.4942 10.7983 22.5918 10.7983 21.6509V7.45947C10.7983 6.51852 10.4245 5.61611 9.75919 4.95076C9.09384 4.28541 8.19143 3.91162 7.25048 3.91162C6.30954 3.91162 5.40713 4.28541 4.74178 4.95076C4.07643 5.61611 3.70264 6.51852 3.70264 7.45947C3.70264 8.40042 4.07643 9.30283 4.74178 9.96818C5.40713 10.6335 6.30954 11.0073 7.25048 11.0073H21.4419C22.3828 11.0073 23.2852 10.6335 23.9506 9.96818C24.6159 9.30283 24.9897 8.40042 24.9897 7.45947C24.9897 6.51852 24.6159 5.61611 23.9506 4.95076C23.2852 4.28541 22.3828 3.91162 21.4419 3.91162Z" stroke="#82705D" stroke-width="2.36523" stroke-linecap="round" stroke-linejoin="round"/>
</svg>
