<svg width="39" height="49" viewBox="0 0 39 49" fill="none" xmlns="http://www.w3.org/2000/svg">
<path id="Vector" d="M19.5088 0.148926L0.548828 10.7289L0.758828 33.6189L0.838828 33.8089C4.75883 42.5689 12.2388 48.0189 20.1788 48.0189C20.6188 48.0189 21.0588 48.0089 21.4988 47.9689C29.5388 47.3589 35.9088 41.3289 38.5188 31.8389L38.8388 11.0089L19.5088 0.148926ZM19.4988 2.43893L35.7588 11.5689L25.8988 16.8489C25.8988 16.8489 25.8988 16.8489 25.8888 16.8489C25.0188 16.3389 24.0788 15.9389 23.0888 15.6689C23.8088 14.7989 24.2388 13.6089 24.2388 12.3089C24.2388 9.56893 22.3088 7.33893 19.9388 7.33893C17.5688 7.33893 15.6388 9.56893 15.6388 12.3089C15.6388 13.6589 16.1088 14.8789 16.8588 15.7689C15.7788 16.0689 14.7988 16.4989 13.9188 17.0289L3.60883 11.3089L19.4988 2.43893ZM19.9388 15.2689C18.6688 15.2689 17.6388 13.9389 17.6388 12.3089C17.6388 10.6689 18.6688 9.33893 19.9388 9.33893C21.2088 9.33893 22.2388 10.6689 22.2388 12.3089C22.2388 13.9389 21.2088 15.2689 19.9388 15.2689ZM20.1088 17.2689C21.3888 17.2689 22.6188 17.5289 23.7488 17.9989L20.6388 19.6689C20.3788 19.8089 20.0388 19.9989 19.6688 20.2189L16.0288 18.1989C17.2088 17.6689 18.5688 17.3389 20.1088 17.2689ZM21.1688 23.3389C21.6088 23.5489 23.8388 24.7089 24.4588 27.2289C24.4688 27.2689 25.3188 30.9189 22.7888 32.7289C21.0888 33.8889 19.0488 33.8789 17.3388 32.6989C15.5788 31.4789 14.7488 29.4489 15.2288 27.4589C15.5288 25.8789 17.6888 23.9189 19.7388 22.5389L21.1688 23.3389ZM17.7988 21.4689C15.8188 22.9189 13.6688 24.9689 13.2788 27.0289C12.6088 29.7789 13.7588 32.6589 16.2088 34.3489C17.3988 35.1689 18.7488 35.5889 20.0888 35.5889C21.4188 35.5889 22.7488 35.1789 23.9388 34.3689C27.5788 31.7589 26.4488 26.9589 26.3988 26.7589C25.5788 23.4389 22.8388 21.9189 22.0788 21.5589L21.7288 21.3589L25.8088 19.1689C28.4988 21.1589 30.2788 24.5189 30.2788 28.3289C30.2788 34.4289 25.7188 39.3989 20.1488 39.3989C13.1688 39.0989 9.98883 33.4489 9.98883 28.3289C9.98883 25.0489 11.2988 21.5589 14.0588 19.3889L17.7988 21.4689ZM36.5588 31.4289C34.1588 39.9989 28.4788 45.4389 21.3488 45.9789C13.8388 46.5589 6.55883 41.5289 2.74883 33.1789L2.56883 13.0189L12.1588 18.3389C9.32883 20.9189 7.98883 24.7389 7.98883 28.3289C7.98883 34.3789 11.7688 41.0389 20.1088 41.3989C26.8188 41.3989 32.2788 35.5389 32.2788 28.3289C32.2788 24.2189 30.4988 20.5389 27.7088 18.1489L36.8088 13.2689L36.5588 31.4289Z" fill="#407B3F"/>
</svg>
