<svg width="39" height="48" viewBox="0 0 39 48" fill="none" xmlns="http://www.w3.org/2000/svg">
<path d="M18.96 0L0 10.58L0.21 33.47L0.29 33.66C4.21 42.42 11.69 47.87 19.63 47.87C20.07 47.87 20.51 47.86 20.95 47.82C28.99 47.21 35.36 41.18 37.97 31.69L38.29 10.86L18.96 0ZM18.95 2.29L35.21 11.42L25.35 16.7C25.35 16.7 25.35 16.7 25.34 16.7C24.47 16.19 23.53 15.79 22.54 15.52C23.26 14.65 23.69 13.46 23.69 12.16C23.69 9.42 21.76 7.19 19.39 7.19C17.02 7.19 15.09 9.42 15.09 12.16C15.09 13.51 15.56 14.73 16.31 15.62C15.23 15.92 14.25 16.35 13.37 16.88L3.06 11.16L18.95 2.29ZM19.39 15.12C18.12 15.12 17.09 13.79 17.09 12.16C17.09 10.52 18.12 9.19 19.39 9.19C20.66 9.19 21.69 10.52 21.69 12.16C21.69 13.79 20.66 15.12 19.39 15.12ZM19.56 17.12C20.84 17.12 22.07 17.38 23.2 17.85L20.09 19.52C19.83 19.66 19.49 19.85 19.12 20.07L15.48 18.05C16.66 17.52 18.02 17.19 19.56 17.12ZM20.62 23.19C21.06 23.4 23.29 24.56 23.91 27.08C23.92 27.12 24.77 30.77 22.24 32.58C20.54 33.74 18.5 33.73 16.79 32.55C15.03 31.33 14.2 29.3 14.68 27.31C14.98 25.73 17.14 23.77 19.19 22.39L20.62 23.19ZM17.25 21.32C15.27 22.77 13.12 24.82 12.73 26.88C12.06 29.63 13.21 32.51 15.66 34.2C16.85 35.02 18.2 35.44 19.54 35.44C20.87 35.44 22.2 35.03 23.39 34.22C27.03 31.61 25.9 26.81 25.85 26.61C25.03 23.29 22.29 21.77 21.53 21.41L21.18 21.21L25.26 19.02C27.95 21.01 29.73 24.37 29.73 28.18C29.73 34.28 25.17 39.25 19.6 39.25C12.62 38.95 9.44 33.3 9.44 28.18C9.44 24.9 10.75 21.41 13.51 19.24L17.25 21.32ZM36.01 31.28C33.61 39.85 27.93 45.29 20.8 45.83C13.29 46.41 6.01 41.38 2.2 33.03L2.02 12.87L11.61 18.19C8.78 20.77 7.44 24.59 7.44 28.18C7.44 34.23 11.22 40.89 19.56 41.25C26.27 41.25 31.73 35.39 31.73 28.18C31.73 24.07 29.95 20.39 27.16 18L36.26 13.12L36.01 31.28Z" fill="#FFF7EF"/>
</svg>
