<svg width="29" height="29" viewBox="0 0 29 29" fill="none" xmlns="http://www.w3.org/2000/svg">
<path d="M8.4331 13.3725L13.1636 2.729C14.1045 2.729 15.0069 3.10279 15.6723 3.76814C16.3376 4.4335 16.7114 5.3359 16.7114 6.27685V11.0073H23.405C23.7479 11.0034 24.0875 11.0741 24.4003 11.2145C24.7131 11.3549 24.9916 11.5616 25.2166 11.8204C25.4416 12.0791 25.6076 12.3837 25.7032 12.7129C25.7988 13.0422 25.8217 13.3883 25.7702 13.7273L24.1382 24.3709C24.0527 24.9349 23.7662 25.449 23.3316 25.8184C22.8969 26.1879 22.3434 26.3878 21.773 26.3813H8.4331M8.4331 13.3725V26.3813M8.4331 13.3725H4.88525C4.25795 13.3725 3.65635 13.6217 3.21278 14.0653C2.76921 14.5089 2.52002 15.1105 2.52002 15.7378V24.0161C2.52002 24.6434 2.76921 25.245 3.21278 25.6886C3.65635 26.1321 4.25795 26.3813 4.88525 26.3813H8.4331" stroke="white" stroke-width="2.36523" stroke-linecap="round" stroke-linejoin="round"/>
</svg>
